{"title":"Flaskepost fra P 720p BRRip x264-titler","magnet":"magnet:?xt=urn:btih:2b6a2eeddca13ab830234425a6dbc4cdfd39851b&dn=Flaskepost+fra+P+720p+BRRip+x264-titler&tr=udp%3A%2F%2Ftracker.leechers-paradise.org%3A6969&tr=udp%3A%2F%2Fzer0day.ch%3A1337&tr=udp%3A%2F%2Fopen.demonii.com%3A1337&tr=udp%3A%2F%2Ftracker.coppersurfer.tk%3A6969&tr=udp%3A%2F%2Fexodus.desync.com%3A6969","uploader":"movieZ.freak","categoryP":"video","categoryS":"hd___movies","size":"1220195307","seeders":"2","leechers":"7","description":"SOURCE:\r\n--------------\r\nFlaskepost Fra P 2016 1080p BluRay x264 DTS-PTNK\r\n\r\n <a href=\"\nhttps://www.imdb.com/title/tt4088268/\" rel=\"nofollow\" target=\"_NEW\">\nhttps://www.imdb.com/title/tt4088268/</a>\r\n <a href=\"\nhttps://www.rottentomatoes.com/m/a_conspiracy_of_faith_2016/\" rel=\"nofollow\" target=\"_NEW\">\nhttps://www.rottentomatoes.com/m/a_conspiracy_of_faith_2016/</a>\r\n <a href=\"\nhttps://en.wikipedia.org/wiki/A_Conspiracy_of_Faith\" rel=\"nofollow\" target=\"_NEW\">\nhttps://en.wikipedia.org/wiki/A_Conspiracy_of_Faith</a>\r\n\r\n\r\n- SAMPLE: Yes\r\n\r\n- SUBTITLE: English\r\n\r\n- LANGUAGE / AUDIO: Danish\r\n\r\n\r\nSCREENSHOTS:\r\n------------------- <a href=\"\nhttps://imgur.com/a/ZFzX6cK\" rel=\"nofollow\" target=\"_NEW\">\nhttps://imgur.com/a/ZFzX6cK</a>\r\n\r\n\r\nDIRECTOR: Hans Petter Moland\r\n <a href=\"\nhttps://www.imdb.com/name/nm0596407/\" rel=\"nofollow\" target=\"_NEW\">\nhttps://www.imdb.com/name/nm0596407/</a>\r\n\r\n\r\nCAST: Nikolaj Lie Kaas, Fares Fares, P&#xE5;l Sverre Hagen, Jacob Lohmann, Amanda Collin, ...\r\n\r\n\r\nPLOT:\r\n-----------\r\nTwo intertwined cases linking the past with the present will require the aid of Department Q to catch an elusive serial killer, while time is running out. \r\n************************************\r\n\r\n- Duration: 1h 51min\r\n\r\n- Nominal bit rate: 1310 kb/s\r\n\r\n- Res: 1280 x 542\r\n\r\n- AR: 2.35:1\r\n\r\n- FPS: 23.976 FPS\r\n\r\n- Audio: AAC, 2 channels, 128 Kbps\r\n\r\n************************************\r\n\r\nGeneral\r\n---------------\r\nFormat : Matroska\r\nFormat version : Version 4 / Version 2\r\nFile size : 1.11 GiB\r\nDuration : 1h 51min\r\nOverall bit rate : 1427 kb/s\r\nEncoded date : UTC 2018-07-02 00:51:31\r\nWriting application : mkvmerge v24.0.0 (&apos;Beyond The Pale&apos;) 64-bit\r\nWriting library : libebml v1.3.6 + libmatroska v1.4.9\r\n\r\nVideo\r\n-----------\r\nFormat : AVC\r\nFormat/Info : Advanced Video Codec\r\nFormat profile : High@L4.1\r\nFormat settings : CABAC / 5 Ref Frames\r\nFormat settings, CABAC : Yes\r\nFormat settings, ReFrames : 5 frames\r\nCodec ID : V_MPEG4/ISO/AVC\r\nDuration : 1h 51min\r\nBit rate : 1310 kb/s\r\nWidth : 1280 pixels\r\nHeight : 542 pixels\r\nDisplay aspect ratio : 2.35:1\r\nFrame rate mode : Constant\r\nFrame rate : 23.976 FPS\r\nColor space : YUV\r\nChroma subsampling : 4:2:0\r\nBit depth : 8 bits\r\nScan type : Progressive\r\nBits/(Pixel*Frame) : 0.079\r\nStream size : 1.01 GiB (91%)\r\nWriting library : x264 core 142\r\nEncoding settings : cabac=1 / ref=5\r\nDefault : Yes\r\nForced : No\r\n\r\nAudio\r\n-----------\r\nFormat : AAC\r\nFormat/Info : Advanced Audio Codec\r\nFormat profile : LC\r\nCodec ID : A_AAC-2\r\nDuration : 1h 51min\r\nBit rate : 128 kb/s\r\nChannel(s) : 2 channels\r\nChannel positions : Front: L R\r\nSampling rate : 48.0 kHz\r\nCompression mode : Lossy\r\nStream size : 102 MiB (9%)\r\nTitle : Stereo\r\nLanguage : Danish\r\nDefault : Yes\r\nForced : No","last_updated":"2018-07-02T12:13:46.180Z","parsed":{"xt":"urn:btih:2b6a2eeddca13ab830234425a6dbc4cdfd39851b","dn":"Flaskepost fra P 720p BRRip x264-titler","tr":["udp://exodus.desync.com:6969","udp://open.demonii.com:1337","udp://tracker.coppersurfer.tk:6969","udp://tracker.leechers-paradise.org:6969","udp://zer0day.ch:1337"],"infoHash":"2b6a2eeddca13ab830234425a6dbc4cdfd39851b","infoHashBuffer":{"type":"Buffer","data":[43,106,46,237,220,161,58,184,48,35,68,37,166,219,196,205,253,57,133,27]},"name":"Flaskepost fra P 720p BRRip x264-titler","announce":["udp://exodus.desync.com:6969","udp://open.demonii.com:1337","udp://tracker.coppersurfer.tk:6969","udp://tracker.leechers-paradise.org:6969","udp://zer0day.ch:1337"],"urlList":[]}}